<svg width="243" height="38" viewBox="0 0 243 38" fill="none" xmlns="http://www.w3.org/2000/svg">
<rect width="243" height="38" rx="6" fill="#F3F4F6"/>
<path d="M24.7678 20.7678C25.2366 20.2989 25.5 19.663 25.5 19C25.5 18.337 25.2366 17.7011 24.7678 17.2322C24.2989 16.7634 23.663 16.5 23 16.5C22.337 16.5 21.7011 16.7634 21.2322 17.2322C20.7634 17.7011 20.5 18.337 20.5 19C20.5 19.663 20.7634 20.2989 21.2322 20.7678C21.7011 21.2366 22.337 21.5 23 21.5C23.663 21.5 24.2989 21.2366 24.7678 20.7678Z" stroke="#4D5562" stroke-width="2" stroke-linecap="round" stroke-linejoin="round"/>
<path d="M15.0483 19C16.11 15.6192 19.2692 13.1667 23 13.1667C26.7317 13.1667 29.89 15.6192 30.9517 19C29.89 22.3808 26.7317 24.8333 23 24.8333C19.2692 24.8333 16.11 22.3808 15.0483 19Z" stroke="#4D5562" stroke-width="2" stroke-linecap="round" stroke-linejoin="round"/>
<path d="M42.1186 24.5H43.6548V20.647H45.7429C45.7777 20.647 45.8075 20.647 45.8423 20.647L47.9105 24.5H49.6605L47.4034 20.3786C48.6513 19.9162 49.2727 18.8771 49.2727 17.5099C49.2727 15.6357 48.1094 14.3182 45.7479 14.3182H42.1186V24.5ZM43.6548 19.3246V15.6357H45.5838C47.1001 15.6357 47.7266 16.3565 47.7266 17.5099C47.7266 18.6584 47.1001 19.3246 45.6037 19.3246H43.6548ZM55.8601 21.3331C55.8651 22.6307 54.9006 23.2472 54.0653 23.2472C53.1456 23.2472 52.5092 22.581 52.5092 21.5419V16.8636H51.0227V21.7209C51.0227 23.6151 52.0618 24.5994 53.5284 24.5994C54.6768 24.5994 55.4574 23.9929 55.8104 23.1776H55.8899V24.5H57.3516V16.8636H55.8601V21.3331ZM60.8354 19.9659C60.8354 18.7479 61.5811 18.0518 62.6152 18.0518C63.6245 18.0518 64.236 18.7131 64.236 19.8217V24.5H65.7225V19.6428C65.7225 17.7536 64.6834 16.7642 63.1223 16.7642C61.9739 16.7642 61.2232 17.2962 60.8702 18.1065H60.7757V16.8636H59.3489V24.5H60.8354V19.9659ZM71.2807 16.8636H69.7147V15.0341H68.2282V16.8636H67.1096V18.0568H68.2282V22.5661C68.2232 23.9531 69.2821 24.6243 70.4554 24.5994C70.9277 24.5945 71.2459 24.505 71.4199 24.4403L71.1515 23.2124C71.052 23.2322 70.8681 23.277 70.6294 23.277C70.1472 23.277 69.7147 23.1179 69.7147 22.2578V18.0568H71.2807V16.8636ZM72.9251 24.5H74.4116V16.8636H72.9251V24.5ZM73.6758 15.6854C74.1879 15.6854 74.6154 15.2876 74.6154 14.8004C74.6154 14.3132 74.1879 13.9105 73.6758 13.9105C73.1587 13.9105 72.7362 14.3132 72.7362 14.8004C72.7362 15.2876 73.1587 15.6854 73.6758 15.6854ZM76.4114 24.5H77.8979V19.7919C77.8979 18.7628 78.6188 18.0469 79.464 18.0469C80.2892 18.0469 80.861 18.5938 80.861 19.424V24.5H82.3425V19.6328C82.3425 18.7131 82.9043 18.0469 83.8738 18.0469C84.6593 18.0469 85.3056 18.4844 85.3056 19.5185V24.5H86.7921V19.3793C86.7921 17.6342 85.8176 16.7642 84.4355 16.7642C83.3368 16.7642 82.5115 17.2912 82.1436 18.1065H82.0641C81.731 17.2713 81.03 16.7642 80.0108 16.7642C79.0016 16.7642 78.2509 17.2663 77.9327 18.1065H77.8382V16.8636H76.4114V24.5ZM92.0756 24.6541C93.7411 24.6541 94.9194 23.8338 95.2575 22.5909L93.8505 22.3374C93.582 23.0582 92.9357 23.4261 92.0906 23.4261C90.8178 23.4261 89.9627 22.6009 89.9229 21.1293H95.3519V20.6023C95.3519 17.843 93.7013 16.7642 91.9712 16.7642C89.8434 16.7642 88.4414 18.3849 88.4414 20.7315C88.4414 23.103 89.8235 24.6541 92.0756 24.6541ZM89.9279 20.0156C89.9876 18.9318 90.7731 17.9922 91.9812 17.9922C93.1346 17.9922 93.8903 18.8473 93.8952 20.0156H89.9279Z" fill="#4D5562"/>
<rect x="109.5" y="1.5" width="132" height="35" rx="4.5" fill="white"/>
<path d="M128.5 22.3333L125.167 19L128.5 15.6667M133.5 15.6667L136.833 19L133.5 22.3333" stroke="#5D5FEF" stroke-width="2" stroke-linecap="round" stroke-linejoin="round"/>
<path d="M158.575 17.6293C158.227 15.4517 156.522 14.179 154.369 14.179C151.734 14.179 149.79 16.1527 149.79 19.4091C149.79 22.6655 151.724 24.6392 154.369 24.6392C156.607 24.6392 158.242 23.2372 158.575 21.2237L157.024 21.2188C156.761 22.5213 155.667 23.2372 154.379 23.2372C152.634 23.2372 151.317 21.8999 151.317 19.4091C151.317 16.9382 152.629 15.581 154.384 15.581C155.682 15.581 156.771 16.3118 157.024 17.6293H158.575ZM163.511 24.6541C165.664 24.6541 167.07 23.0781 167.07 20.7166C167.07 18.3402 165.664 16.7642 163.511 16.7642C161.358 16.7642 159.951 18.3402 159.951 20.7166C159.951 23.0781 161.358 24.6541 163.511 24.6541ZM163.516 23.4062C162.109 23.4062 161.453 22.1783 161.453 20.7116C161.453 19.25 162.109 18.0071 163.516 18.0071C164.913 18.0071 165.569 19.25 165.569 20.7116C165.569 22.1783 164.913 23.4062 163.516 23.4062ZM170.216 19.9659C170.216 18.7479 170.962 18.0518 171.996 18.0518C173.005 18.0518 173.617 18.7131 173.617 19.8217V24.5H175.103V19.6428C175.103 17.7536 174.064 16.7642 172.503 16.7642C171.355 16.7642 170.604 17.2962 170.251 18.1065H170.157V16.8636H168.73V24.5H170.216V19.9659ZM182.819 18.728C182.511 17.5398 181.581 16.7642 179.931 16.7642C178.206 16.7642 176.983 17.674 176.983 19.0263C176.983 20.1101 177.639 20.831 179.071 21.1491L180.363 21.4325C181.099 21.5966 181.442 21.9247 181.442 22.402C181.442 22.9936 180.811 23.456 179.836 23.456C178.946 23.456 178.375 23.0732 178.196 22.3224L176.759 22.5412C177.007 23.8935 178.131 24.6541 179.846 24.6541C181.691 24.6541 182.968 23.6747 182.968 22.2926C182.968 21.2138 182.282 20.5476 180.88 20.2244L179.667 19.946C178.827 19.7472 178.464 19.4638 178.469 18.9467C178.464 18.3601 179.1 17.9425 179.946 17.9425C180.87 17.9425 181.298 18.4545 181.472 18.9666L182.819 18.728ZM188.167 16.8636H186.601V15.0341H185.115V16.8636H183.996V18.0568H185.115V22.5661C185.11 23.9531 186.169 24.6243 187.342 24.5994C187.814 24.5945 188.133 24.505 188.307 24.4403L188.038 23.2124C187.939 23.2322 187.755 23.277 187.516 23.277C187.034 23.277 186.601 23.1179 186.601 22.2578V18.0568H188.167V16.8636ZM189.812 24.5H191.298V19.8366C191.298 18.8374 192.069 18.1165 193.123 18.1165C193.431 18.1165 193.779 18.1712 193.898 18.206V16.7841C193.749 16.7642 193.456 16.7493 193.267 16.7493C192.372 16.7493 191.607 17.2564 191.328 18.0767H191.249V16.8636H189.812V24.5ZM200.022 21.3331C200.027 22.6307 199.063 23.2472 198.227 23.2472C197.308 23.2472 196.671 22.581 196.671 21.5419V16.8636H195.185V21.7209C195.185 23.6151 196.224 24.5994 197.691 24.5994C198.839 24.5994 199.619 23.9929 199.972 23.1776H200.052V24.5H201.514V16.8636H200.022V21.3331ZM206.728 24.6541C208.532 24.6541 209.701 23.5703 209.865 22.0838H208.418C208.229 22.9091 207.588 23.3963 206.738 23.3963C205.48 23.3963 204.669 22.3473 204.669 20.6818C204.669 19.0462 205.495 18.017 206.738 18.017C207.682 18.017 208.259 18.6136 208.418 19.3295H209.865C209.706 17.7884 208.448 16.7642 206.713 16.7642C204.56 16.7642 203.168 18.3849 203.168 20.7166C203.168 23.0185 204.51 24.6541 206.728 24.6541ZM215.019 16.8636H213.453V15.0341H211.966V16.8636H210.848V18.0568H211.966V22.5661C211.961 23.9531 213.02 24.6243 214.194 24.5994C214.666 24.5945 214.984 24.505 215.158 24.4403L214.89 23.2124C214.79 23.2322 214.606 23.277 214.368 23.277C213.885 23.277 213.453 23.1179 213.453 22.2578V18.0568H215.019V16.8636ZM219.798 24.6541C221.951 24.6541 223.358 23.0781 223.358 20.7166C223.358 18.3402 221.951 16.7642 219.798 16.7642C217.645 16.7642 216.238 18.3402 216.238 20.7166C216.238 23.0781 217.645 24.6541 219.798 24.6541ZM219.803 23.4062C218.396 23.4062 217.74 22.1783 217.74 20.7116C217.74 19.25 218.396 18.0071 219.803 18.0071C221.2 18.0071 221.856 19.25 221.856 20.7116C221.856 22.1783 221.2 23.4062 219.803 23.4062ZM225.017 24.5H226.503V19.8366C226.503 18.8374 227.274 18.1165 228.328 18.1165C228.636 18.1165 228.984 18.1712 229.104 18.206V16.7841C228.954 16.7642 228.661 16.7493 228.472 16.7493C227.577 16.7493 226.812 17.2564 226.533 18.0767H226.454V16.8636H225.017V24.5Z" fill="#4D5562"/>
<rect x="109.5" y="1.5" width="132" height="35" rx="4.5" stroke="#E2E3E5"/>
</svg>
